<svg width="249" height="85" viewBox="0 0 249 85" fill="none" xmlns="http://www.w3.org/2000/svg">
<path d="M2.11796 84.6131H0V72.2445H2.11796V84.6131ZM14.6103 84.6131H12.484L7.0299 75.838V84.6131H4.90357V72.2445H7.0299L12.501 81.0539V72.2445H14.6103V84.6131ZM23.6908 81.4275C23.6908 80.8837 23.5002 80.4649 23.1192 80.1701C22.7439 79.8759 22.0631 79.5786 21.077 79.2782C20.0909 78.9782 19.3066 78.644 18.7238 78.2757C17.6089 77.568 17.0515 76.6448 17.0515 75.5064C17.0515 74.5099 17.4521 73.6887 18.2532 73.0429C19.0599 72.3973 20.1048 72.0745 21.388 72.0745C22.2395 72.0745 22.9987 72.2333 23.6654 72.5503C24.3321 72.8676 24.8561 73.3207 25.2369 73.9095C25.618 74.4927 25.8085 75.1414 25.8085 75.8549H23.6908C23.6908 75.2093 23.489 74.7052 23.0855 74.3427C22.6877 73.9747 22.1164 73.7905 21.371 73.7905C20.6764 73.7905 20.1356 73.9406 19.7491 74.2406C19.3681 74.541 19.1778 74.96 19.1778 75.498C19.1778 75.9512 19.385 76.3306 19.7996 76.6364C20.2143 76.9365 20.8977 77.231 21.8501 77.52C22.8027 77.8029 23.5674 78.1287 24.1445 78.497C24.7215 78.8595 25.1446 79.2782 25.4136 79.7541C25.6825 80.2242 25.8168 80.7763 25.8168 81.4106C25.8168 82.4414 25.4246 83.2625 24.6403 83.8741C23.8614 84.48 22.8027 84.7831 21.4636 84.7831C20.5784 84.7831 19.7632 84.6187 19.0181 84.2903C18.2785 83.9562 17.7014 83.4974 17.2869 82.9142C16.8779 82.331 16.6733 81.6513 16.6733 80.8753H18.7996C18.7996 81.5778 19.0293 82.1214 19.4885 82.5063C19.948 82.8915 20.6063 83.0842 21.4636 83.0842C22.2032 83.0842 22.7578 82.9339 23.1276 82.6339C23.5029 82.328 23.6908 81.9259 23.6908 81.4275ZM36.8049 72.2445V80.5101C36.8049 81.8241 36.3875 82.8662 35.5527 83.6361C34.7235 84.4007 33.6169 84.7831 32.2331 84.7831C30.8325 84.7831 29.7202 84.4065 28.8967 83.653C28.0732 82.8945 27.6613 81.8438 27.6613 80.5015V72.2445H29.7793V80.5187C29.7793 81.3457 29.9865 81.9769 30.401 82.4131C30.8156 82.8491 31.4263 83.0673 32.2331 83.0673C33.8691 83.0673 34.6872 82.1949 34.6872 80.4505V72.2445H36.8049ZM43.7506 79.8473H41.3807V84.6131H39.2546V72.2445H43.5575C44.9693 72.2445 46.0589 72.5645 46.8264 73.2043C47.594 73.8446 47.9779 74.7703 47.9779 75.9822C47.9779 76.8092 47.779 77.5028 47.3813 78.0636C46.989 78.6185 46.4399 79.0461 45.734 79.3462L48.4821 84.5027V84.6131H46.2047L43.7506 79.8473ZM41.3807 78.1232H43.5658C44.283 78.1232 44.8431 77.9418 45.2466 77.5793C45.6499 77.2111 45.8516 76.7099 45.8516 76.0757C45.8516 75.4132 45.664 74.9007 45.2887 74.5382C44.9188 74.1757 44.3643 73.9888 43.6246 73.9775H41.3807V78.1232ZM57.0163 81.7334H52.2762L51.2847 84.6131H49.0744L53.6967 72.2445H55.6043L60.2348 84.6131H58.0162L57.0163 81.7334ZM52.8731 80.0004H56.4194L54.6461 74.8696L52.8731 80.0004ZM71.5088 84.6131H69.3824L63.9283 75.838V84.6131H61.802V72.2445H63.9283L69.3994 81.0539V72.2445H71.5088V84.6131ZM83.5304 80.5866C83.4071 81.9062 82.9254 82.9367 82.0849 83.6788C81.2447 84.4151 80.1269 84.7831 78.7318 84.7831C77.757 84.7831 76.8969 84.5507 76.1518 84.0865C75.4122 83.6164 74.8409 82.9509 74.4373 82.0903C74.0341 81.2292 73.8239 80.2297 73.807 79.0913V77.936C73.807 76.7695 74.0116 75.7415 74.4206 74.8524C74.8296 73.9633 75.415 73.278 76.1769 72.7969C76.9445 72.3152 77.8296 72.0745 78.8327 72.0745C80.1828 72.0745 81.2698 72.4458 82.0933 73.1874C82.917 73.9292 83.3961 74.9769 83.5304 76.3306H81.4127C81.3119 75.4414 81.0541 74.8016 80.6394 74.4106C80.2304 74.0143 79.6282 73.816 78.8327 73.816C77.9083 73.816 77.1966 74.1586 76.698 74.8438C76.2051 75.5235 75.9529 76.5233 75.9417 77.8425V78.9385C75.9417 80.2752 76.1769 81.2946 76.6476 81.9968C77.1237 82.699 77.8186 83.0501 78.7318 83.0501C79.5666 83.0501 80.1941 82.8604 80.6143 82.481C81.0345 82.1014 81.3006 81.4699 81.4127 80.5866H83.5304ZM92.7622 79.0913H87.7365V82.897H93.6108V84.6131H85.6104V72.2445H93.552V73.9775H87.7365V77.3924H92.7622V79.0913ZM99.9723 84.6131V72.2445H104.166C105.55 72.2445 106.603 72.5248 107.326 73.0856C108.049 73.6461 108.41 74.4814 108.41 75.5915C108.41 76.1578 108.259 76.6675 107.956 77.1206C107.654 77.5735 107.211 77.9246 106.628 78.1742C107.29 78.3553 107.799 78.698 108.158 79.2017C108.522 79.7003 108.704 80.3005 108.704 81.0029C108.704 82.1638 108.334 83.0559 107.595 83.6788C106.861 84.3017 105.807 84.6131 104.435 84.6131H99.9723ZM102.099 79.032V82.897H104.46C105.127 82.897 105.648 82.7301 106.023 82.3959C106.399 82.0618 106.586 81.5975 106.586 81.0029C106.586 79.7172 105.936 79.0605 104.637 79.032H102.099ZM102.099 77.4518H104.183C104.844 77.4518 105.359 77.3017 105.729 77.0017C106.105 76.6958 106.292 76.2654 106.292 75.7104C106.292 75.0987 106.118 74.6572 105.771 74.3854C105.429 74.1133 104.894 73.9775 104.166 73.9775H102.099V77.4518ZM115.499 79.8473H113.129V84.6131H111.002V72.2445H115.305C116.717 72.2445 117.807 72.5645 118.575 73.2043C119.342 73.8446 119.726 74.7703 119.726 75.9822C119.726 76.8092 119.527 77.5028 119.129 78.0636C118.737 78.6185 118.188 79.0461 117.482 79.3462L120.23 84.5027V84.6131H117.952L115.499 79.8473ZM113.129 78.1232H115.314C116.031 78.1232 116.591 77.9418 116.994 77.5793C117.398 77.2111 117.6 76.7099 117.6 76.0757C117.6 75.4132 117.412 74.9007 117.036 74.5382C116.667 74.1757 116.112 73.9888 115.372 73.9775H113.129V78.1232ZM131.68 78.7516C131.68 79.9638 131.473 81.0282 131.058 81.9458C130.644 82.8574 130.05 83.5598 129.277 84.0526C128.509 84.5394 127.624 84.7831 126.621 84.7831C125.63 84.7831 124.744 84.5394 123.965 84.0526C123.192 83.5598 122.593 82.8604 122.167 81.9541C121.747 81.0481 121.534 80.0032 121.528 78.8195V78.1232C121.528 76.9166 121.738 75.8519 122.159 74.9289C122.585 74.006 123.181 73.3008 123.949 72.8138C124.722 72.321 125.607 72.0745 126.604 72.0745C127.602 72.0745 128.484 72.318 129.252 72.8052C130.025 73.2866 130.622 73.9833 131.042 74.8948C131.462 75.8009 131.675 76.8572 131.68 78.0636V78.7516ZM129.554 78.106C129.554 76.7354 129.296 75.6849 128.781 74.9542C128.271 74.224 127.545 73.8585 126.604 73.8585C125.685 73.8585 124.965 74.224 124.445 74.9542C123.929 75.6791 123.666 76.7072 123.654 78.038V78.7516C123.654 80.1108 123.915 81.1615 124.436 81.9031C124.963 82.645 125.691 83.0163 126.621 83.0163C127.562 83.0163 128.285 82.6538 128.789 81.9289C129.299 81.204 129.554 80.1449 129.554 78.7516V78.106ZM137.483 79.2699L136.096 80.7564V84.6131H133.97V72.2445H136.096V78.0466L137.273 76.5768L140.853 72.2445H143.425L138.878 77.7236L143.685 84.6131H141.164L137.483 79.2699ZM152.152 79.0913H147.127V82.897H153.001V84.6131H145V72.2445H152.942V73.9775H147.127V77.3924H152.152V79.0913ZM159.4 79.8473H157.03V84.6131H154.904V72.2445H159.207C160.619 72.2445 161.709 72.5645 162.476 73.2043C163.244 73.8446 163.628 74.7703 163.628 75.9822C163.628 76.8092 163.429 77.5028 163.031 78.0636C162.639 78.6185 162.09 79.0461 161.384 79.3462L164.132 84.5027V84.6131H161.854L159.4 79.8473ZM157.03 78.1232H159.216C159.933 78.1232 160.493 77.9418 160.896 77.5793C161.3 77.2111 161.501 76.7099 161.501 76.0757C161.501 75.4132 161.314 74.9007 160.938 74.5382C160.569 74.1757 160.014 73.9888 159.274 73.9775H157.03V78.1232ZM172.212 81.4275C172.212 80.8837 172.022 80.4649 171.641 80.1701C171.265 79.8759 170.585 79.5786 169.599 79.2782C168.613 78.9782 167.828 78.644 167.245 78.2757C166.131 77.568 165.573 76.6448 165.573 75.5064C165.573 74.5099 165.973 73.6887 166.775 73.0429C167.582 72.3973 168.626 72.0745 169.909 72.0745C170.761 72.0745 171.52 72.2333 172.187 72.5503C172.854 72.8676 173.377 73.3207 173.758 73.9095C174.14 74.4927 174.33 75.1414 174.33 75.8549H172.212C172.212 75.2093 172.01 74.7052 171.607 74.3427C171.209 73.9747 170.638 73.7905 169.893 73.7905C169.198 73.7905 168.657 73.9406 168.271 74.2406C167.89 74.541 167.699 74.96 167.699 75.498C167.699 75.9512 167.906 76.3306 168.321 76.6364C168.736 76.9365 169.419 77.231 170.372 77.52C171.324 77.8029 172.089 78.1287 172.666 78.497C173.243 78.8595 173.666 79.2782 173.935 79.7541C174.204 80.2242 174.338 80.7763 174.338 81.4106C174.338 82.4414 173.946 83.2625 173.162 83.8741C172.383 84.48 171.324 84.7831 169.985 84.7831C169.1 84.7831 168.285 84.6187 167.539 84.2903C166.8 83.9562 166.223 83.4974 165.808 82.9142C165.399 82.331 165.195 81.6513 165.195 80.8753H167.321C167.321 81.5778 167.551 82.1214 168.01 82.5063C168.47 82.8915 169.128 83.0842 169.985 83.0842C170.725 83.0842 171.279 82.9339 171.649 82.6339C172.024 82.328 172.212 81.9259 172.212 81.4275ZM182.961 80.0173V84.6131H180.834V72.2445H185.515C186.882 72.2445 187.967 72.6041 188.768 73.3233C189.575 74.0426 189.978 74.9939 189.978 76.1777C189.978 77.3894 189.583 78.3326 188.793 79.0065C188.009 79.6804 186.908 80.0173 185.49 80.0173H182.961ZM182.961 78.2929H185.515C186.272 78.2929 186.849 78.1143 187.246 77.7577C187.644 77.3952 187.843 76.8744 187.843 76.1947C187.843 75.5266 187.642 74.9939 187.238 74.5975C186.835 74.1957 186.28 73.9888 185.574 73.9775H182.961V78.2929ZM196.327 81.92L199.436 72.2445H201.773L197.369 84.6131H195.31L190.923 72.2445H193.251L196.327 81.92ZM212.173 73.9775H208.356V84.6131H206.248V73.9775H202.466V72.2445H212.173V73.9775ZM220.038 82.897H225.593V84.6131H217.913V72.2445H220.038V82.897ZM234.505 73.9775H230.69V84.6131H228.582V73.9775H224.8V72.2445H234.505V73.9775ZM236.291 84.6131V72.2445H239.905C240.986 72.2445 241.944 72.4879 242.779 72.9752C243.62 73.4622 244.27 74.153 244.729 75.0479C245.188 75.9426 245.418 76.9676 245.418 78.1232V78.7433C245.418 79.9155 245.186 80.9461 244.72 81.8354C244.261 82.7245 243.603 83.4098 242.745 83.8912C241.894 84.3724 240.916 84.6131 239.812 84.6131H236.291ZM238.418 73.9775V82.897H239.805C240.919 82.897 241.775 82.546 242.367 81.8438C242.967 81.1358 243.273 80.1221 243.283 78.8026V78.1143C243.283 76.7723 242.994 75.7473 242.418 75.0393C241.841 74.3313 241.002 73.9775 239.905 73.9775H238.418ZM247.758 82.4384C248.14 82.4384 248.434 82.549 248.64 82.7697C248.848 82.985 248.951 83.257 248.951 83.5854C248.951 83.9082 248.848 84.1769 248.64 84.3924C248.434 84.6018 248.14 84.7066 247.758 84.7066C247.395 84.7066 247.105 84.6018 246.893 84.3924C246.68 84.1827 246.572 83.9137 246.572 83.5854C246.572 83.257 246.677 82.985 246.885 82.7697C247.091 82.549 247.383 82.4384 247.758 82.4384Z" fill="#BAAC70"/>
<path d="M11.4275 25.5847C11.4275 26.5589 11.634 27.394 12.0471 28.0899C12.506 28.7857 13.1257 29.3889 13.9059 29.8991C14.6862 30.4096 15.6041 30.8966 16.6597 31.3606C17.7613 31.7781 18.9775 32.2189 20.3085 32.6829C21.9608 33.2861 23.5902 33.982 25.1966 34.7705C26.8489 35.5129 28.3176 36.4639 29.6027 37.6238C30.9337 38.7372 32.0123 40.1292 32.8384 41.7993C33.6646 43.4694 34.0776 45.4875 34.0776 47.8535C34.0776 50.3589 33.6187 52.4698 32.7007 54.1864C31.8287 55.903 30.6354 57.2947 29.1208 58.3619C27.6062 59.3826 25.8621 60.1247 23.8885 60.5887C21.9149 61.0527 19.8725 61.2846 17.7613 61.2846C14.732 61.2846 11.8864 60.9135 9.22441 60.1712C6.60828 59.4288 4.35932 58.5243 2.47754 57.4571L4.54291 49.9414C6.28699 51.2867 8.21467 52.4003 10.3259 53.2816C12.4831 54.1631 14.9386 54.6039 17.6924 54.6039C20.6298 54.6039 22.764 54.0937 24.095 53.073C25.4261 52.0058 26.0916 50.5908 26.0916 48.828C26.0916 47.4825 25.7703 46.3458 25.1277 45.4178C24.4852 44.4436 23.682 43.6318 22.7181 42.9824C21.7543 42.2863 20.7216 41.7296 19.6201 41.312C18.5644 40.8945 17.6236 40.5467 16.7974 40.2683C15.3287 39.8043 13.8371 39.2476 12.3225 38.598C10.8079 37.9486 9.40799 37.1135 8.12288 36.0928C6.83776 35.0256 5.78213 33.7036 4.95598 32.1262C4.17573 30.5488 3.7856 28.5771 3.7856 26.2109C3.7856 23.9841 4.15278 22.1051 4.88713 20.5741C5.66738 19.043 6.70007 17.8136 7.98518 16.8856C9.3162 15.9115 10.8538 15.2156 12.5978 14.798C14.3878 14.3805 16.3155 14.1717 18.3809 14.1717C20.9052 14.1717 23.3377 14.4269 25.6785 14.9372C28.0651 15.4475 30.0617 16.0739 31.6681 16.8162L29.8092 24.1927C28.9831 23.636 28.0881 23.149 27.1242 22.7315C26.1604 22.3137 25.1507 21.9659 24.095 21.6875C23.0853 21.4092 22.0526 21.2003 20.997 21.0611C19.9873 20.8757 19.0234 20.7828 18.1055 20.7828C16.0401 20.7828 14.4108 21.1771 13.2174 21.9659C12.0241 22.7545 11.4275 23.9608 11.4275 25.5847ZM56.0389 27.394C60.0778 27.394 63.1988 28.4379 65.4019 30.5256C67.6049 32.567 68.7065 35.4664 68.7065 39.2244C68.7065 39.7346 68.6606 40.2913 68.5688 40.8945C68.5229 41.4512 68.4311 42.0079 68.2934 42.5646C68.2016 43.1216 68.0639 43.6318 67.8803 44.0958C67.7426 44.5133 67.582 44.8611 67.3984 45.1395H47.3644C47.4561 46.5315 47.7086 47.8535 48.1217 49.1063C48.5347 50.3124 49.1314 51.3796 49.9116 52.3074C50.6919 53.1889 51.6328 53.908 52.7343 54.4647C53.8817 54.975 55.2127 55.2303 56.7273 55.2303C58.4255 55.2303 60.2155 54.9055 62.0973 54.2561C64.025 53.6064 65.6543 52.7946 66.9853 51.8204L68.2246 57.5268C67.6279 57.8979 66.8935 58.3154 66.0215 58.7794C65.1495 59.1969 64.1627 59.5912 63.0611 59.9625C61.9596 60.3336 60.7663 60.6352 59.4812 60.8671C58.242 61.1454 56.9339 61.2846 55.557 61.2846C52.9867 61.2846 50.7148 60.8438 48.7413 59.9625C46.7677 59.0345 45.1154 57.8052 43.7844 56.274C42.4534 54.6966 41.4436 52.8873 40.7552 50.8459C40.0667 48.8048 39.7225 46.6707 39.7225 44.4436C39.7225 42.1703 40.0667 40.013 40.7552 37.9718C41.4895 35.8839 42.5452 34.0514 43.9221 32.474C45.299 30.8966 46.9972 29.6673 49.0167 28.7857C51.082 27.858 53.4228 27.394 56.0389 27.394ZM55.8324 33.3788C53.9047 33.3788 52.2524 33.9587 50.8755 35.1186C49.5445 36.232 48.5806 37.7629 47.984 39.7114H61.1335C61.1794 39.5722 61.2023 39.41 61.2023 39.2244C61.2482 39.0387 61.2712 38.8069 61.2712 38.5285C61.2712 37.0438 60.7663 35.8145 59.7565 34.8402C58.7468 33.8658 57.4388 33.3788 55.8324 33.3788ZM100.849 36.3712C100.344 36.0001 99.7018 35.6288 98.9215 35.2578C98.1872 34.8865 97.384 34.5619 96.5119 34.2835C95.6399 34.0049 94.722 33.7963 93.7581 33.6571C92.8402 33.4715 91.9681 33.3788 91.142 33.3788C89.5815 33.3788 88.2505 33.6804 87.1489 34.2835C86.0933 34.8402 85.2213 35.6056 84.5328 36.5798C83.8903 37.5078 83.4084 38.598 83.0871 39.8508C82.8117 41.1034 82.674 42.4024 82.674 43.7477C82.674 45.3251 82.8576 46.8098 83.2248 48.2016C83.5919 49.5471 84.1427 50.73 84.8771 51.7507C85.6114 52.7714 86.5293 53.5832 87.6309 54.1864C88.7783 54.7896 90.0864 55.0911 91.5551 55.0911C93.2074 55.0911 94.9514 54.7663 96.7873 54.1169C98.6691 53.4208 100.23 52.4698 101.469 51.2634L102.846 57.8052C101.561 58.6402 99.7936 59.4288 97.5446 60.1712C95.3416 60.9135 92.9779 61.2846 90.4535 61.2846C87.7915 61.2846 85.4508 60.8208 83.4313 59.8928C81.4577 58.9651 79.8054 57.7355 78.4744 56.2045C77.1893 54.6271 76.2025 52.8179 75.514 50.7765C74.8715 48.6888 74.5502 46.485 74.5502 44.1652C74.5502 41.9384 74.8486 39.8276 75.4452 37.8326C76.0878 35.7912 77.0745 34.0049 78.4056 32.474C79.7366 30.8966 81.4348 29.6673 83.5001 28.7857C85.5655 27.858 88.0439 27.394 90.9355 27.394C93.1385 27.394 95.2957 27.6491 97.4069 28.1593C99.5182 28.6698 101.216 29.3424 102.502 30.1775L100.849 36.3712ZM117.39 28.4379V49.2455C117.39 51.1475 117.872 52.609 118.836 53.6297C119.845 54.6039 121.13 55.0911 122.691 55.0911C124.297 55.0911 125.766 54.5574 127.097 53.4905C128.428 52.3771 129.415 50.7997 130.057 48.7583V28.4379H137.699V60.4495H131.779L131.365 55.9957H131.09C130.585 57.0628 129.943 57.9444 129.162 58.6402C128.382 59.2896 127.51 59.8234 126.546 60.2409C125.628 60.6119 124.665 60.8671 123.655 61.0062C122.645 61.1919 121.658 61.2846 120.694 61.2846C119.18 61.2846 117.757 61.0992 116.426 60.7279C115.141 60.3568 113.993 59.7536 112.984 58.9186C112.02 58.0371 111.24 56.9004 110.643 55.5087C110.092 54.0704 109.817 52.3074 109.817 50.2198V28.4379H117.39ZM165.311 35.3969C164.852 35.0256 164.14 34.7241 163.176 34.4922C162.213 34.2603 161.386 34.1444 160.698 34.1444C159.78 34.1444 159.023 34.3762 158.426 34.8402C157.829 35.2578 157.302 35.8377 156.843 36.5798C156.384 37.2759 155.994 38.0878 155.672 39.0155C155.351 39.9435 155.053 40.8945 154.777 41.8687V60.4495H147.204V28.4379H153.125L153.469 35.1186H153.745C154.204 34.1444 154.685 33.1931 155.19 32.2654C155.695 31.3374 156.269 30.5256 156.911 29.8297C157.554 29.0873 158.288 28.5074 159.115 28.0899C159.987 27.6259 160.996 27.394 162.144 27.394C163.98 27.394 165.701 27.9972 167.307 29.2033L165.311 35.3969ZM180.527 60.4495H172.954V28.4379H180.527V60.4495ZM171.853 18.1384C171.853 17.4888 171.967 16.8626 172.197 16.2594C172.472 15.6563 172.839 15.1228 173.298 14.6588C173.757 14.1485 174.262 13.7541 174.813 13.4758C175.41 13.1974 176.052 13.0582 176.741 13.0582C177.383 13.0582 178.003 13.1974 178.599 13.4758C179.196 13.7541 179.724 14.1485 180.183 14.6588C180.688 15.1228 181.078 15.6563 181.353 16.2594C181.629 16.8626 181.766 17.4888 181.766 18.1384C181.766 18.8343 181.629 19.4837 181.353 20.0869C181.078 20.6436 180.688 21.1541 180.183 21.6178C179.724 22.0818 179.196 22.4529 178.599 22.7315C178.003 22.9634 177.383 23.0793 176.741 23.0793C175.41 23.0793 174.262 22.5921 173.298 21.6178C172.335 20.6436 171.853 19.4837 171.853 18.1384ZM199.67 33.1004C198.155 33.1004 196.962 33.402 196.09 34.0049C195.263 34.5619 194.85 35.3737 194.85 36.4406C194.85 37.1368 195.08 37.7862 195.539 38.3893C196.044 38.946 197.076 39.41 198.637 39.7811L203.525 40.8945C205.453 41.312 206.99 41.9152 208.138 42.704C209.331 43.4926 210.249 44.3509 210.892 45.2786C211.58 46.2067 212.039 47.1576 212.269 48.1319C212.498 49.1064 212.613 50.0109 212.613 50.8459C212.613 52.3306 212.314 53.7224 211.719 55.0214C211.121 56.274 210.273 57.3644 209.171 58.2922C208.068 59.2202 206.738 59.9393 205.177 60.4495C203.617 61.0062 201.873 61.2846 199.945 61.2846C197.512 61.2846 195.263 60.9368 193.198 60.2409C191.133 59.4985 189.48 58.6865 188.241 57.8052L190.031 51.194C191.592 52.7249 193.336 53.8616 195.263 54.6039C197.237 55.3463 199.05 55.7173 200.702 55.7173C202.446 55.7173 203.777 55.3463 204.695 54.6039C205.613 53.8153 206.072 52.7481 206.072 51.4029C206.072 50.614 205.843 49.9646 205.384 49.4542C204.925 48.8975 204.007 48.4335 202.63 48.0624L196.021 46.3923C194.46 46.021 193.175 45.4875 192.165 44.7917C191.202 44.0958 190.421 43.3302 189.824 42.4951C189.274 41.6136 188.884 40.7088 188.654 39.7811C188.471 38.8533 188.379 37.9718 188.379 37.1368C188.379 34.0282 189.457 31.639 191.615 29.9689C193.772 28.2523 196.572 27.394 200.014 27.394C201.804 27.394 203.731 27.6491 205.797 28.1593C207.863 28.6233 209.606 29.3192 211.03 30.2472L209.032 36.5103C208.114 35.768 206.83 35.0256 205.177 34.2835C203.525 33.4947 201.689 33.1004 199.67 33.1004ZM235.098 39.7114L248.592 60.4495H240.33L230.073 44.722L227.388 47.436V60.4495H219.815V8.95239H227.388V38.6677L237.921 28.4379H246.39L235.098 39.7114Z" fill="white"/>
<path d="M175 24C181.627 24 187 18.6274 187 12C187 5.37258 181.627 0 175 0C168.373 0 163 5.37258 163 12C163 18.6274 168.373 24 175 24Z" fill="#BAAC70"/>
<path d="M178.907 14.6163C178.907 14.6163 181.627 24 175 24C168.373 24 163 18.6274 163 12C163 5.37258 168.373 0 175 0C163 7.0814 178.907 14.6163 178.907 14.6163Z" fill="#373435"/>
<path d="M171.996 5.81389C171.996 6.31019 172.084 6.7356 172.261 7.09012C172.458 7.44461 172.723 7.75186 173.058 8.01181C173.392 8.27177 173.785 8.51993 174.237 8.7563C174.709 8.96895 175.23 9.19354 175.8 9.42984C176.508 9.73709 177.206 10.0916 177.894 10.4934C178.601 10.8715 179.23 11.356 179.781 11.9468C180.351 12.514 180.813 13.223 181.167 14.0738C181.521 14.9247 181.697 15.9527 181.697 17.158C181.697 18.4343 181.501 19.5096 181.108 20.384C180.734 21.2585 180.223 21.9675 179.574 22.5111C178.926 23.031 178.179 23.4091 177.333 23.6455C176.488 23.8818 175.613 24 174.709 24C173.411 24 172.193 23.8109 171.052 23.4328C169.932 23.0547 168.969 22.5938 168.163 22.0502L169.047 18.2216C169.794 18.907 170.62 19.4741 171.524 19.9232C172.448 20.3722 173.5 20.5967 174.679 20.5967C175.938 20.5967 176.852 20.3368 177.422 19.8168C177.992 19.2733 178.277 18.5524 178.277 17.6544C178.277 16.969 178.139 16.39 177.864 15.9173C177.589 15.421 177.245 15.0074 176.832 14.6765C176.419 14.322 175.977 14.0384 175.505 13.8257C175.053 13.613 174.65 13.4357 174.296 13.294C173.667 13.0576 173.028 12.774 172.379 12.4432C171.731 12.1123 171.131 11.6869 170.581 11.1669C170.03 10.6233 169.578 9.94981 169.224 9.14623C168.89 8.34272 168.723 7.33828 168.723 6.13294C168.723 4.99852 168.88 4.04136 169.195 3.26145C169.529 2.48154 169.971 1.85524 170.522 1.38257C171.092 0.886263 171.75 0.531758 172.497 0.319054C173.264 0.106351 174.09 0 174.974 0C176.055 0 177.097 0.129985 178.1 0.389955C179.122 0.649926 179.977 0.968979 180.665 1.34712L179.869 5.10488C179.515 4.82127 179.132 4.57312 178.719 4.36042C178.306 4.14771 177.874 3.97046 177.422 3.82866C176.989 3.68685 176.547 3.5805 176.095 3.5096C175.662 3.41507 175.25 3.3678 174.856 3.3678C173.972 3.3678 173.274 3.56869 172.763 3.97046C172.252 4.37223 171.996 4.9867 171.996 5.81389Z" fill="white"/>
</svg>
