<svg width="39" height="39" viewBox="0 0 39 39" fill="none" xmlns="http://www.w3.org/2000/svg">
<path d="M21.2678 2.47487L36.5251 17.7322C37.5014 18.7085 37.5014 20.2915 36.5251 21.2678L21.2678 36.5251C20.2915 37.5014 18.7085 37.5014 17.7322 36.5251L2.47488 21.2678C1.49856 20.2915 1.49856 18.7085 2.47487 17.7322L17.7322 2.47488C18.7085 1.49856 20.2915 1.49856 21.2678 2.47487Z" stroke="black"/>
<path d="M29.7071 19.7071C30.0976 19.3166 30.0976 18.6834 29.7071 18.2929L23.3431 11.9289C22.9526 11.5384 22.3195 11.5384 21.9289 11.9289C21.5384 12.3195 21.5384 12.9526 21.9289 13.3431L27.5858 19L21.9289 24.6569C21.5384 25.0474 21.5384 25.6805 21.9289 26.0711C22.3195 26.4616 22.9526 26.4616 23.3431 26.0711L29.7071 19.7071ZM9 20L29 20V18L9 18V20Z" fill="black"/>
</svg>
