<svg width="17" height="22" viewBox="0 0 17 22" fill="none" xmlns="http://www.w3.org/2000/svg">
<path fill-rule="evenodd" clip-rule="evenodd" d="M7.41239 0.934445C8.06981 0.727113 8.74907 0.557989 9.43176 0.431769C9.55367 0.409305 9.63324 0.295267 9.61018 0.177074C9.58966 0.0727024 9.49588 0 9.39009 0C9.3762 0 9.36199 0.00128554 9.3481 0.00390123C8.64674 0.133506 7.94888 0.307192 7.27377 0.52014C7.15596 0.557298 7.09155 0.680135 7.12976 0.794584C7.16797 0.908982 7.2946 0.971578 7.41239 0.934445Z" fill="white"/>
<path fill-rule="evenodd" clip-rule="evenodd" d="M1.70121 4.18334C2.6372 3.33394 3.67863 2.5868 4.79649 1.9628C5.29226 1.68602 5.80633 1.43194 6.32453 1.20763C6.43758 1.15868 6.48842 1.02989 6.43822 0.920061C6.40095 0.839 6.31885 0.79089 6.23326 0.79089C6.20262 0.790916 6.1717 0.796967 6.14202 0.809841C5.60991 1.04018 5.08194 1.30105 4.57291 1.58516C3.42539 2.22588 2.35618 2.99295 1.39495 3.86507C1.30429 3.94719 1.29959 4.08497 1.3842 4.17291C1.46882 4.26084 1.6106 4.26548 1.70121 4.18334Z" fill="white"/>
<path fill-rule="evenodd" clip-rule="evenodd" d="M5.42895 2.42519C5.48267 2.53361 5.61656 2.57936 5.72803 2.52694C7.61162 1.64676 9.64145 1.14406 11.7613 1.03289C11.885 1.02638 11.9798 0.923728 11.9731 0.803662C11.9668 0.68752 11.8677 0.597636 11.7496 0.597636C11.7454 0.597636 11.7414 0.597715 11.7373 0.597894C9.55776 0.712164 7.4708 1.22917 5.53382 2.13448C5.42203 2.18664 5.375 2.31684 5.42895 2.42519Z" fill="white"/>
<path fill-rule="evenodd" clip-rule="evenodd" d="M0.682231 6.24097C1.76027 5.0537 3.01141 4.03874 4.4002 3.22438C4.50625 3.16227 4.5404 3.02836 4.47631 2.92542C4.43426 2.8577 4.36008 2.82016 4.28429 2.82016C4.24481 2.82016 4.20472 2.83029 4.16841 2.85154C2.74014 3.68885 1.45432 4.73225 0.34594 5.95296C0.263809 6.04318 0.273 6.18076 0.365827 6.26031C0.458627 6.33996 0.600443 6.33129 0.682231 6.24097Z" fill="white"/>
<path fill-rule="evenodd" clip-rule="evenodd" d="M8.93346 2.09582C8.96127 2.21303 9.0819 2.28609 9.20251 2.25886C10.3222 2.00744 11.4916 1.87989 12.6776 1.87989C12.8816 1.87992 13.0885 1.88384 13.3108 1.89192C13.4332 1.89797 13.5387 1.80265 13.5433 1.68248C13.548 1.56232 13.4514 1.46123 13.3276 1.45669C13.0998 1.44838 12.8873 1.4443 12.6776 1.4443C11.4578 1.4443 10.2544 1.5756 9.10147 1.83455C8.98084 1.86163 8.9057 1.9786 8.93346 2.09582Z" fill="white"/>
<path fill-rule="evenodd" clip-rule="evenodd" d="M0.103086 8.00885C0.203492 8.07921 0.343723 8.05724 0.41603 7.95964C1.80638 6.08783 3.56811 4.60073 5.65192 3.53973C6.40283 3.15722 7.18849 2.83618 7.98678 2.58559C8.10456 2.54859 8.16929 2.42583 8.13108 2.31138C8.10044 2.21919 8.01237 2.16054 7.91793 2.16054C7.89488 2.16054 7.87153 2.16392 7.84879 2.17113C7.02619 2.42931 6.21686 2.76002 5.4435 3.15402C3.29747 4.24668 1.48369 5.77779 0.0522497 7.70481C-0.0200576 7.80241 0.00236275 7.93848 0.103086 8.00885Z" fill="white"/>
<path fill-rule="evenodd" clip-rule="evenodd" d="M0.11003 9.62242C0.216458 9.68376 0.354128 9.64966 0.417298 9.54621C1.78395 7.30872 3.738 5.49829 6.06813 4.31066C8.09981 3.27577 10.3235 2.75102 12.6776 2.75102C13.2628 2.75105 13.8543 2.78484 14.4358 2.85147C14.5593 2.86562 14.6703 2.78008 14.6848 2.66068C14.6993 2.54128 14.6114 2.43301 14.4884 2.4189C13.8895 2.3502 13.2805 2.31548 12.6776 2.31548C10.2503 2.31548 7.95646 2.85695 5.85971 3.92503C3.456 5.15015 1.44072 7.01709 0.0314113 9.324C-0.0317586 9.4275 0.00331207 9.56106 0.11003 9.62242Z" fill="white"/>
<path fill-rule="evenodd" clip-rule="evenodd" d="M15.476 17.89C15.4599 17.89 15.4435 17.8918 15.4271 17.8953C14.9991 17.9877 14.5613 18.0446 14.1259 18.0646C14.0123 18.0698 13.9208 18.1566 13.9127 18.2668C13.8732 18.8096 13.7732 19.3483 13.6154 19.8678C13.5804 19.9831 13.6483 20.1043 13.7671 20.1383C13.8857 20.1721 14.0106 20.1063 14.0457 19.991C14.1941 19.5023 14.2942 18.9977 14.3439 18.4882C14.7397 18.4606 15.1359 18.4043 15.5245 18.3205C15.6453 18.2944 15.7216 18.1781 15.6947 18.0606C15.6715 17.9592 15.5788 17.89 15.476 17.89Z" fill="white"/>
<path fill-rule="evenodd" clip-rule="evenodd" d="M6.27683 4.69676C3.49923 6.11193 1.33527 8.37492 0.0194226 11.2411C-0.030807 11.351 0.0200554 11.4797 0.133112 11.5286C0.246432 11.5777 0.378766 11.5284 0.429286 11.4185C1.70343 8.64264 3.79768 6.45166 6.48525 5.08245C8.38751 4.11346 10.471 3.62212 12.6776 3.62212C13.3725 3.62215 14.0758 3.67259 14.7689 3.77229C14.9292 3.79489 15.0962 3.82497 15.2655 3.86166C15.3862 3.8879 15.5061 3.81399 15.5332 3.69659C15.5602 3.57922 15.4841 3.46282 15.3632 3.43659C15.183 3.39751 15.0048 3.36543 14.834 3.34135C14.1198 3.23864 13.3944 3.18656 12.6776 3.18656C10.3977 3.18656 8.24413 3.69467 6.27683 4.69676Z" fill="white"/>
<path fill-rule="evenodd" clip-rule="evenodd" d="M13.2625 17.751C13.2596 17.7508 13.2571 17.7508 13.2546 17.7508C13.1343 17.7508 13.0348 17.8435 13.0304 17.9611C12.9962 18.925 12.7553 19.8512 12.3145 20.7142C12.2595 20.822 12.3047 20.9526 12.4159 21.0061C12.5267 21.0595 12.6612 21.0155 12.7162 20.9078C13.1857 19.9888 13.4422 19.0025 13.4787 17.9762C13.483 17.856 13.3861 17.7551 13.2625 17.751Z" fill="white"/>
<path fill-rule="evenodd" clip-rule="evenodd" d="M16.0661 16.8238C16.0417 16.8238 16.017 16.8277 15.9926 16.8359C15.2714 17.0788 14.5184 17.2019 13.7543 17.2019C13.6304 17.202 13.53 17.2994 13.53 17.4197C13.53 17.54 13.6304 17.6375 13.7543 17.6375C14.5685 17.6375 15.3711 17.5063 16.1396 17.2474C16.2566 17.208 16.3186 17.0839 16.278 16.9702C16.2458 16.8803 16.159 16.8238 16.0661 16.8238Z" fill="white"/>
<path fill-rule="evenodd" clip-rule="evenodd" d="M12.6776 4.05769C10.5443 4.05769 8.53054 4.53205 6.69304 5.46775C3.48819 7.10158 1.10316 10.0518 0.104671 13.5992C0.0544675 13.7741 -0.0949024 14.1056 0.139106 14.2042C0.268853 14.2588 0.414128 14.1828 0.445713 14.0568C1.35132 10.4733 3.70422 7.4833 6.90146 5.85339C8.67391 4.95087 10.6175 4.49323 12.6776 4.49323C13.3246 4.49328 13.984 4.54051 14.6374 4.63375C15.0694 4.69586 15.4906 4.80129 15.8893 4.94707C16.0051 4.98928 16.1345 4.93261 16.1782 4.81998C16.2218 4.70743 16.1633 4.58183 16.0474 4.53941C15.6188 4.3828 15.1666 4.26956 14.7028 4.20283C14.0277 4.10654 13.3464 4.05766 12.6776 4.05769Z" fill="white"/>
<path fill-rule="evenodd" clip-rule="evenodd" d="M12.5845 17.5604C12.5813 17.4421 12.4815 17.3483 12.3603 17.3483C12.3584 17.3483 12.3562 17.3483 12.3543 17.3484C12.2305 17.3515 12.1326 17.4515 12.1361 17.5717C12.1714 18.9066 11.7303 20.2272 10.8938 21.2902C10.8186 21.3858 10.8373 21.5225 10.9358 21.5955C11.0343 21.6685 11.1749 21.6503 11.25 21.5547C12.1487 20.413 12.6227 18.9944 12.5845 17.5604Z" fill="white"/>
<path fill-rule="evenodd" clip-rule="evenodd" d="M16.6804 15.8541C16.6286 15.7355 16.4857 15.6899 16.3753 15.7429C15.5487 16.1331 14.6669 16.3308 13.7543 16.3308C13.4569 16.3308 13.1586 16.3096 12.8674 16.2678C12.7449 16.2506 12.6309 16.3325 12.6129 16.4514C12.5946 16.5704 12.6795 16.6811 12.8021 16.6987C13.1147 16.7436 13.435 16.7663 13.7543 16.7663C14.7309 16.7664 15.6746 16.5557 16.5594 16.1403C16.664 16.104 16.7315 15.9708 16.6804 15.8541Z" fill="white"/>
<path fill-rule="evenodd" clip-rule="evenodd" d="M12.6776 4.92879C10.6914 4.92879 8.81823 5.36982 7.11019 6.23951C3.28168 8.19059 0.812321 12.0397 0.504764 16.5359C0.496524 16.6559 0.590038 16.7596 0.713499 16.7676C0.837884 16.7758 0.944021 16.6848 0.952235 16.5648C1.24968 12.221 3.62969 8.50524 7.31861 6.6252C8.9619 5.78856 10.7647 5.3643 12.6776 5.3643C13.2827 5.36433 13.898 5.40841 14.5063 5.49532C15.154 5.58859 15.7647 5.79359 16.3212 6.10452C16.4284 6.16453 16.5656 6.12865 16.6274 6.02438C16.6892 5.92009 16.6522 5.78694 16.5448 5.72696C15.9394 5.38877 15.2756 5.16579 14.5718 5.0644C13.9417 4.97441 13.3044 4.92879 12.6776 4.92879Z" fill="white"/>
<path fill-rule="evenodd" clip-rule="evenodd" d="M16.7091 14.5903C16.6665 14.5903 16.6235 14.602 16.5854 14.6266C15.5277 15.307 14.262 15.5842 12.9988 15.4063C12.8923 15.3909 12.785 15.3831 12.6795 15.3831C12.4538 15.3831 12.2577 15.4221 12.1124 15.4959C11.6567 15.7281 11.2102 16.5234 11.239 17.5943C11.2797 19.145 10.5929 20.6022 9.35505 21.5924C9.25934 21.6688 9.24579 21.8061 9.32441 21.8989C9.40335 21.9918 9.5445 22.005 9.64018 21.9286C10.9854 20.8526 11.7316 19.2687 11.6874 17.583C11.6621 16.6449 12.0426 16.0233 12.3208 15.8817C12.3669 15.8582 12.4752 15.8186 12.6795 15.8186C12.7629 15.8186 12.8479 15.8248 12.9334 15.8373C14.3098 16.031 15.6838 15.729 16.8332 14.9896C16.9364 14.9233 16.9646 14.7881 16.8962 14.6878C16.8531 14.6246 16.7818 14.5903 16.7091 14.5903Z" fill="white"/>
<path fill-rule="evenodd" clip-rule="evenodd" d="M12.6776 5.79992C10.8376 5.79992 9.10496 6.20715 7.52732 7.01045C3.60632 9.00833 1.24841 13.1593 1.37348 17.8431C1.37692 17.9844 1.38801 18.1287 1.40663 18.284C1.41547 18.3892 1.50957 18.4829 1.6302 18.4829C1.75398 18.4829 1.85439 18.385 1.85439 18.2647C1.85436 18.2562 1.85375 18.2476 1.8528 18.2392C1.83511 18.0951 1.82534 17.9621 1.82188 17.8322C1.70122 13.3152 3.96725 9.31634 7.73574 7.39613C9.2483 6.62597 10.9109 6.23543 12.6776 6.23543C13.2426 6.23543 13.8133 6.27659 14.3748 6.35773C15.1909 6.47436 15.9461 6.81214 16.5586 7.33472C16.6515 7.41398 16.7934 7.40503 16.8751 7.31479C16.9569 7.22447 16.9477 7.08681 16.8546 7.00745C16.1769 6.4294 15.342 6.05564 14.4404 5.92686C13.8575 5.84262 13.2647 5.79989 12.6776 5.79992Z" fill="white"/>
<path fill-rule="evenodd" clip-rule="evenodd" d="M16.7757 13.4396C16.7216 13.4396 16.6673 13.4585 16.6243 13.4967C15.832 14.2008 14.8128 14.5886 13.7543 14.5886C13.5449 14.5886 13.3348 14.5735 13.1295 14.5439C12.9814 14.5227 12.8302 14.5119 12.6795 14.5119C12.3025 14.512 11.9712 14.5837 11.6956 14.725C10.8509 15.1546 10.3074 16.3169 10.3428 17.6169C10.3882 19.353 9.29885 20.9454 7.63216 21.5795C7.51689 21.6234 7.46006 21.7497 7.50521 21.8617C7.55035 21.9737 7.68049 22.0287 7.79606 21.985C9.63765 21.2843 10.8414 19.5244 10.7912 17.6056C10.7602 16.4677 11.2071 15.4651 11.904 15.1105C12.1152 15.0023 12.3761 14.9475 12.6795 14.9475C12.8084 14.9475 12.9375 14.9567 13.0635 14.9747C13.2905 15.0075 13.5229 15.0241 13.7543 15.0241C14.9252 15.0241 16.052 14.5958 16.9271 13.818C17.0185 13.7369 17.0247 13.599 16.9411 13.5103C16.8969 13.4634 16.8364 13.4396 16.7757 13.4396Z" fill="white"/>
<path fill-rule="evenodd" clip-rule="evenodd" d="M14.3091 6.78839C13.7653 6.71051 13.2164 6.67102 12.6776 6.67102C10.9844 6.67105 9.39167 7.04489 7.94352 7.78223C4.32818 9.6244 2.15439 13.4709 2.27059 17.8208C2.29739 18.8308 2.72751 19.7616 3.4756 20.4362L3.50652 20.4654L3.51286 20.4683C3.8444 20.7614 4.21956 20.9915 4.63164 21.1533C4.68628 21.1748 4.74216 21.1948 4.79807 21.2139L4.83594 21.2317H4.85234C5.24486 21.3609 5.65855 21.4268 6.08328 21.4268C6.11357 21.4268 6.14421 21.4268 6.1815 21.4258C8.28298 21.3721 9.94837 19.6685 9.89408 17.6282C9.85396 16.1433 10.4795 14.8521 11.4875 14.3388C11.7549 14.2024 12.0609 14.1182 12.3969 14.0885C12.5201 14.0776 12.611 13.9717 12.6 13.8519C12.5886 13.7321 12.48 13.6442 12.3562 13.6547C11.9614 13.6896 11.599 13.79 11.2791 13.9531C10.1208 14.5429 9.40116 15.9899 9.44568 17.6395C9.49367 19.4398 8.02404 20.943 6.17012 20.9904C6.13724 20.9912 6.11138 20.9909 6.08328 20.9912C5.69898 20.9912 5.32543 20.9307 4.97237 20.8115C4.55017 20.6114 4.14852 20.377 3.77811 20.1146C3.11873 19.5156 2.74267 18.6975 2.71898 17.8094C2.60749 13.6267 4.68911 9.93225 8.15194 8.16787C9.53502 7.46365 11.0577 7.10648 12.6776 7.10648C13.1946 7.10651 13.7216 7.14439 14.2436 7.21914C15.1326 7.34664 15.9173 7.80223 16.4525 8.50137C16.4998 8.56381 16.545 8.62761 16.5869 8.69095C16.6537 8.79225 16.7925 8.82179 16.8967 8.75686C17.001 8.69195 17.0314 8.5572 16.9645 8.45598C16.9175 8.38466 16.8667 8.31304 16.8131 8.24234C16.2058 7.44909 15.3166 6.93269 14.3091 6.78839Z" fill="white"/>
<path fill-rule="evenodd" clip-rule="evenodd" d="M16.897 12.1379C16.8594 12.1145 16.8174 12.1033 16.7759 12.1033C16.7021 12.1033 16.6299 12.1386 16.5871 12.2033C15.9685 13.1373 14.883 13.7175 13.7543 13.7175C13.5873 13.7175 13.4213 13.7057 13.2609 13.6824C13.1383 13.6651 13.0241 13.7468 13.0057 13.8656C12.9877 13.9847 13.0721 14.0954 13.1946 14.1132C13.3769 14.1396 13.5652 14.153 13.7543 14.153C15.0534 14.153 16.2535 13.5122 16.9643 12.4389C17.0313 12.3377 17.0012 12.203 16.897 12.1379Z" fill="white"/>
<path fill-rule="evenodd" clip-rule="evenodd" d="M8.54852 17.6623C8.58359 18.9828 7.50617 20.085 6.14674 20.1194C6.12366 20.1199 6.10349 20.1201 6.08328 20.1201C4.7349 20.1202 3.65116 19.0953 3.61612 17.7869C3.51318 13.9386 5.411 10.5484 8.56907 8.93919C9.82143 8.30142 11.2036 7.9781 12.678 7.9781C13.1541 7.97812 13.6369 8.01272 14.1128 8.08098C14.7644 8.17428 15.3397 8.50852 15.7327 9.0221C16.1256 9.53577 16.2891 10.1673 16.193 10.8004C16.0161 11.9669 14.9676 12.8465 13.7541 12.8465C13.6335 12.8466 13.5117 12.8378 13.3919 12.8206C13.1545 12.7866 12.9148 12.7694 12.6795 12.7694C12.0107 12.7694 11.3991 12.9082 10.8619 13.1819C9.40367 13.9249 8.49549 15.6835 8.54852 17.6623ZM11.0703 13.5676C11.5424 13.3269 12.084 13.2049 12.6795 13.2049C12.893 13.2049 13.1106 13.2206 13.3264 13.2515C13.4677 13.2718 13.6116 13.2821 13.7541 13.2821C15.1884 13.2821 16.4277 12.2425 16.6367 10.8638C16.7503 10.1157 16.5572 9.36939 16.0928 8.7624C15.6283 8.15535 14.9484 7.76028 14.1782 7.65009C13.6808 7.57874 13.1759 7.54251 12.678 7.54251C11.1303 7.54251 9.67808 7.88265 8.36097 8.55348C5.05004 10.2403 3.06035 13.7827 3.1677 17.7982C3.20908 19.3445 4.48985 20.5557 6.08328 20.5557C6.10695 20.5557 6.13034 20.5554 6.15813 20.5546C7.76479 20.5141 9.03833 19.2115 8.99695 17.6509C8.94833 15.8368 9.76209 14.234 11.0703 13.5676Z" fill="white"/>
<path fill-rule="evenodd" clip-rule="evenodd" d="M13.4576 12.3898C13.5557 12.4038 13.6555 12.411 13.7541 12.411C14.7468 12.411 15.6046 11.6912 15.7492 10.7367C15.8279 10.2188 15.6942 9.70212 15.3727 9.28192C15.0511 8.86159 14.5803 8.58815 14.0472 8.51183C13.5928 8.4467 13.132 8.41361 12.678 8.41361C11.2768 8.41364 9.9648 8.72024 8.7778 9.32487C8.14024 9.64978 7.54628 10.0573 7.01293 10.5363C6.92195 10.618 6.91661 10.7558 7.00062 10.8441C7.0846 10.9324 7.22671 10.9377 7.31766 10.8561C7.82193 10.4032 8.38339 10.0177 8.9859 9.71059C10.1082 9.13901 11.3504 8.8492 12.678 8.8492C13.1102 8.8492 13.5489 8.88067 13.9817 8.94268C14.3964 9.00209 14.7625 9.21476 15.0126 9.54159C15.2627 9.86853 15.3667 10.2703 15.3055 10.6733C15.1929 11.4156 14.526 11.9754 13.7541 11.9754C13.6773 11.9754 13.5997 11.9698 13.5231 11.9589C13.2422 11.9187 12.9584 11.8983 12.6795 11.8983C11.8639 11.8983 11.112 12.0706 10.4451 12.4105C8.68622 13.3065 7.58985 15.3768 7.65173 17.6849C7.67415 18.5252 6.98829 19.2267 6.12337 19.2485C6.10914 19.2488 6.09622 19.249 6.08328 19.249C5.22497 19.2491 4.53533 18.5968 4.51294 17.7642C4.45006 15.4125 5.19658 13.2136 6.61505 11.5723C6.69491 11.4802 6.68231 11.3428 6.58756 11.2655C6.49249 11.1882 6.35139 11.2003 6.27147 11.2923C4.78257 13.015 3.99884 15.3175 4.06451 17.7755C4.09325 18.8461 4.97995 19.6846 6.08328 19.6846C6.09968 19.6846 6.11643 19.6844 6.13475 19.6838C7.24723 19.6558 8.12888 18.754 8.10015 17.6736C8.04266 15.5301 9.04495 13.6156 10.6535 12.7961C11.2554 12.4894 11.9371 12.3338 12.6795 12.3338C12.9366 12.3338 13.1983 12.3526 13.4576 12.3898Z" fill="white"/>
<path fill-rule="evenodd" clip-rule="evenodd" d="M6.75491 17.7076C6.7644 18.0677 6.47073 18.3683 6.1 18.3777C5.7274 18.3862 5.41921 18.1011 5.40973 17.7416C5.32477 14.562 6.85471 11.7803 9.40303 10.482C10.3952 9.97657 11.497 9.72028 12.678 9.72028C13.0664 9.7203 13.461 9.74862 13.8507 9.80447C14.0284 9.82991 14.1853 9.92105 14.2925 10.0611C14.3996 10.2012 14.4443 10.3735 14.418 10.5461C14.3919 10.7189 14.2981 10.8712 14.1539 10.9753C14.0367 11.0598 13.8978 11.1043 13.7543 11.1043C13.7211 11.1043 13.6877 11.102 13.6543 11.0971C12.7414 10.9666 11.3713 10.9547 10.0283 11.6391C7.96909 12.6881 6.68419 15.0701 6.75491 17.7076ZM10.2367 12.0248C11.473 11.3947 12.7421 11.4068 13.5888 11.528C13.8854 11.5707 14.1811 11.4984 14.4215 11.3249C14.6618 11.1514 14.8182 10.8974 14.8618 10.6097C14.9055 10.3219 14.8312 10.0349 14.6526 9.80137C14.4739 9.56793 14.2123 9.41599 13.9161 9.3736C13.5049 9.31464 13.0881 9.28474 12.678 9.28474C11.4237 9.28474 10.2518 9.55775 9.19464 10.0963C6.49378 11.4723 4.87196 14.406 4.96133 17.7529C4.97739 18.3522 5.49371 18.8293 6.11138 18.8131C6.72935 18.7975 7.21945 18.2965 7.20334 17.6963C7.13702 15.2235 8.32782 12.9973 10.2367 12.0248Z" fill="white"/>
<path fill-rule="evenodd" clip-rule="evenodd" d="M6.34095 15.4191C6.32421 15.4154 6.30747 15.4136 6.29107 15.4136C6.18874 15.4136 6.09623 15.4822 6.07254 15.5833C5.91086 16.277 5.83855 16.9993 5.85812 17.7303C5.86126 17.8505 5.96328 17.9435 6.08801 17.9423C6.21211 17.9392 6.30969 17.8392 6.30652 17.7189C6.28787 17.0242 6.35643 16.338 6.51021 15.6796C6.53736 15.5623 6.46159 15.4456 6.34095 15.4191Z" fill="white"/>
<path fill-rule="evenodd" clip-rule="evenodd" d="M13.7197 10.6662C13.8425 10.6841 13.9563 10.6015 13.9743 10.4826C13.9924 10.3635 13.9077 10.2529 13.7852 10.2354C13.4616 10.189 13.0872 10.1559 12.6786 10.1559C11.7682 10.1559 10.6863 10.3201 9.61145 10.8677C8.21001 11.5816 7.08777 12.8338 6.45084 14.3936C6.40505 14.5054 6.46125 14.6319 6.57652 14.6763C6.69177 14.7207 6.82189 14.6659 6.86768 14.5541C7.4651 13.0911 8.5135 11.9189 9.81987 11.2534C11.2705 10.5143 12.7411 10.5263 13.7197 10.6662Z" fill="white"/>
</svg>
