<svg width="53" height="17" viewBox="0 0 53 17" fill="none" xmlns="http://www.w3.org/2000/svg">
<path fill-rule="evenodd" clip-rule="evenodd" d="M11.4971 0.722071C11.994 0.56186 12.5073 0.431173 13.0233 0.33364C13.1154 0.316281 13.1756 0.228161 13.1581 0.13683C13.1426 0.0561792 13.0718 0 12.9918 0C12.9813 0 12.9706 0.000993372 12.9601 0.00301459C12.43 0.103164 11.9026 0.237375 11.3924 0.401926C11.3033 0.430639 11.2547 0.525558 11.2835 0.613997C11.3124 0.702395 11.4081 0.750765 11.4971 0.722071Z" fill="white"/>
<path fill-rule="evenodd" clip-rule="evenodd" d="M7.18085 3.23258C7.88823 2.57622 8.67531 1.99889 9.52014 1.51671C9.89483 1.30283 10.2833 1.1065 10.675 0.933171C10.7604 0.895343 10.7988 0.795828 10.7609 0.710956C10.7327 0.648318 10.6707 0.611142 10.606 0.611142C10.5828 0.611162 10.5595 0.615838 10.537 0.625786C10.1349 0.803772 9.73587 1.00536 9.35117 1.2249C8.48392 1.72 7.67585 2.31273 6.94939 2.98665C6.88087 3.0501 6.87732 3.15657 6.94127 3.22452C7.00522 3.29247 7.11238 3.29605 7.18085 3.23258Z" fill="white"/>
<path fill-rule="evenodd" clip-rule="evenodd" d="M9.99813 1.87401C10.0387 1.95779 10.1399 1.99314 10.2242 1.95264C11.6477 1.2725 13.1818 0.884045 14.7838 0.798144C14.8774 0.79311 14.949 0.713789 14.944 0.621012C14.9392 0.531266 14.8643 0.46181 14.775 0.46181C14.7719 0.46181 14.7688 0.461871 14.7657 0.462009C13.1185 0.550309 11.5413 0.949814 10.0774 1.64937C9.9929 1.68968 9.95736 1.79029 9.99813 1.87401Z" fill="white"/>
<path fill-rule="evenodd" clip-rule="evenodd" d="M6.41075 4.82257C7.22548 3.90513 8.17105 3.12084 9.22064 2.49157C9.30079 2.44358 9.3266 2.3401 9.27816 2.26056C9.24639 2.20822 9.19032 2.17921 9.13304 2.17921C9.1032 2.17921 9.0729 2.18704 9.04546 2.20347C7.96603 2.85047 6.99426 3.65674 6.15659 4.60002C6.09452 4.66973 6.10147 4.77604 6.17162 4.83751C6.24176 4.89906 6.34894 4.89236 6.41075 4.82257Z" fill="white"/>
<path fill-rule="evenodd" clip-rule="evenodd" d="M12.6467 1.61949C12.6677 1.71007 12.7589 1.76653 12.85 1.74548C13.6963 1.55121 14.58 1.45264 15.4764 1.45264C15.6306 1.45266 15.7869 1.45569 15.9549 1.46194C16.0474 1.46661 16.1271 1.39296 16.1306 1.3001C16.1341 1.20724 16.0612 1.12913 15.9676 1.12562C15.7955 1.1192 15.6349 1.11605 15.4764 1.11605C14.5545 1.11605 13.645 1.21751 12.7737 1.41761C12.6825 1.43853 12.6257 1.52892 12.6467 1.61949Z" fill="white"/>
<path fill-rule="evenodd" clip-rule="evenodd" d="M5.97305 6.18865C6.04894 6.24303 6.15492 6.22605 6.20956 6.15063C7.26033 4.70423 8.59178 3.55511 10.1666 2.73525C10.7342 2.43967 11.3279 2.1916 11.9312 1.99796C12.0203 1.96936 12.0692 1.8745 12.0403 1.78606C12.0171 1.71483 11.9506 1.66951 11.8792 1.66951C11.8618 1.66951 11.8441 1.67212 11.827 1.67769C11.2053 1.8772 10.5936 2.13274 10.0091 2.43719C8.38724 3.28153 7.01646 4.46466 5.93463 5.95372C5.87999 6.02914 5.89693 6.13428 5.97305 6.18865Z" fill="white"/>
<path fill-rule="evenodd" clip-rule="evenodd" d="M5.9783 7.43551C6.05873 7.48291 6.16278 7.45655 6.21052 7.37662C7.24339 5.64764 8.72017 4.24868 10.4812 3.33097C12.0167 2.53128 13.6973 2.12579 15.4764 2.12579C15.9186 2.12581 16.3657 2.15192 16.8051 2.20341C16.8985 2.21434 16.9824 2.14824 16.9934 2.05598C17.0043 1.96371 16.9378 1.88005 16.8449 1.86915C16.3923 1.81606 15.932 1.78924 15.4764 1.78924C13.6419 1.78924 11.9083 2.20765 10.3237 3.03298C8.50705 3.97966 6.98398 5.4223 5.91888 7.20491C5.87114 7.28489 5.89765 7.38809 5.9783 7.43551Z" fill="white"/>
<path fill-rule="evenodd" clip-rule="evenodd" d="M17.5913 13.8241C17.5791 13.8241 17.5667 13.8255 17.5543 13.8282C17.2309 13.8996 16.9 13.9436 16.5709 13.959C16.4851 13.963 16.4159 14.0301 16.4098 14.1152C16.38 14.5347 16.3044 14.9509 16.1851 15.3524C16.1587 15.4415 16.21 15.5351 16.2998 15.5614C16.3894 15.5875 16.4838 15.5367 16.5103 15.4476C16.6225 15.07 16.6981 14.68 16.7357 14.2863C17.0348 14.265 17.3342 14.2215 17.6279 14.1567C17.7193 14.1366 17.7769 14.0467 17.7566 13.9559C17.739 13.8775 17.669 13.8241 17.5913 13.8241Z" fill="white"/>
<path fill-rule="evenodd" clip-rule="evenodd" d="M10.6389 3.62932C8.53973 4.72285 6.90429 6.47153 5.90982 8.68629C5.87186 8.77122 5.9103 8.87067 5.99575 8.9085C6.08139 8.94639 6.1814 8.9083 6.21958 8.82335C7.18253 6.6784 8.76528 4.98538 10.7964 3.92735C12.2341 3.17859 13.8087 2.79891 15.4764 2.79891C16.0015 2.79893 16.5331 2.83791 17.0569 2.91495C17.178 2.93241 17.3042 2.95566 17.4322 2.98401C17.5234 3.00428 17.6141 2.94718 17.6345 2.85646C17.6549 2.76576 17.5974 2.67582 17.5061 2.65555C17.3698 2.62535 17.2352 2.60056 17.1061 2.58195C16.5664 2.50259 16.0181 2.46234 15.4764 2.46234C13.7533 2.46234 12.1257 2.85497 10.6389 3.62932Z" fill="white"/>
<path fill-rule="evenodd" clip-rule="evenodd" d="M15.9184 13.7167C15.9162 13.7166 15.9143 13.7165 15.9124 13.7165C15.8215 13.7165 15.7463 13.7882 15.743 13.879C15.7172 14.6239 15.5351 15.3396 15.202 16.0064C15.1604 16.0897 15.1945 16.1907 15.2786 16.2319C15.3623 16.2733 15.464 16.2393 15.5055 16.156C15.8604 15.4459 16.0543 14.6837 16.0818 13.8907C16.0851 13.7978 16.0118 13.7199 15.9184 13.7167Z" fill="white"/>
<path fill-rule="evenodd" clip-rule="evenodd" d="M18.0373 13.0002C18.0188 13.0002 18.0001 13.0032 17.9817 13.0096C17.4367 13.1973 16.8676 13.2924 16.2901 13.2924C16.1965 13.2924 16.1206 13.3677 16.1206 13.4607C16.1206 13.5536 16.1965 13.629 16.2901 13.629C16.9055 13.629 17.512 13.5276 18.0928 13.3275C18.1812 13.2971 18.2281 13.2012 18.1974 13.1134C18.1731 13.0439 18.1075 13.0002 18.0373 13.0002Z" fill="white"/>
<path fill-rule="evenodd" clip-rule="evenodd" d="M15.4764 3.13548C13.8641 3.13548 12.3422 3.50204 10.9535 4.22508C8.53138 5.48759 6.72887 7.76732 5.97425 10.5085C5.93631 10.6436 5.82342 10.8998 6.00028 10.976C6.09833 11.0182 6.20813 10.9594 6.232 10.8621C6.91642 8.09304 8.69465 5.78255 11.111 4.52307C12.4505 3.82567 13.9194 3.47204 15.4764 3.47204C15.9653 3.47208 16.4637 3.50858 16.9575 3.58063C17.284 3.62862 17.6023 3.71009 17.9036 3.82274C17.9912 3.85536 18.089 3.81156 18.122 3.72453C18.155 3.63756 18.1107 3.5405 18.0231 3.50773C17.6993 3.38671 17.3574 3.29921 17.0069 3.24764C16.4967 3.17324 15.9818 3.13547 15.4764 3.13548Z" fill="white"/>
<path fill-rule="evenodd" clip-rule="evenodd" d="M15.406 13.5694C15.4036 13.478 15.3282 13.4055 15.2366 13.4055C15.2352 13.4055 15.2334 13.4055 15.232 13.4056C15.1385 13.408 15.0645 13.4852 15.0671 13.5782C15.0938 14.6096 14.7604 15.6301 14.1283 16.4515C14.0715 16.5254 14.0855 16.631 14.16 16.6875C14.2345 16.7439 14.3407 16.7298 14.3975 16.6559C15.0767 15.7737 15.4349 14.6775 15.406 13.5694Z" fill="white"/>
<path fill-rule="evenodd" clip-rule="evenodd" d="M18.5016 12.2509C18.4624 12.1593 18.3544 12.124 18.271 12.165C17.6462 12.4665 16.9798 12.6193 16.2901 12.6193C16.0653 12.6193 15.8399 12.6029 15.6198 12.5706C15.5272 12.5573 15.4411 12.6205 15.4275 12.7124C15.4136 12.8044 15.4778 12.8899 15.5704 12.9035C15.8067 12.9382 16.0488 12.9558 16.2901 12.9558C17.0282 12.9558 17.7414 12.793 18.4101 12.4721C18.4891 12.444 18.5401 12.3411 18.5016 12.2509Z" fill="white"/>
<path fill-rule="evenodd" clip-rule="evenodd" d="M15.4764 3.80861C13.9753 3.80861 12.5596 4.1494 11.2687 4.82144C8.37531 6.32909 6.50906 9.30339 6.27663 12.7777C6.2704 12.8705 6.34107 12.9506 6.43438 12.9568C6.52838 12.9631 6.6086 12.8928 6.61481 12.8001C6.8396 9.44351 8.63832 6.57223 11.4263 5.11947C12.6682 4.47298 14.0307 4.14514 15.4764 4.14514C15.9337 4.14516 16.3987 4.17923 16.8584 4.24638C17.3479 4.31845 17.8094 4.47686 18.23 4.71713C18.3111 4.7635 18.4148 4.73578 18.4615 4.6552C18.5082 4.57461 18.4802 4.47173 18.3991 4.42538C17.9415 4.16405 17.4399 3.99175 16.9079 3.9134C16.4317 3.84386 15.9501 3.80861 15.4764 3.80861Z" fill="white"/>
<path fill-rule="evenodd" clip-rule="evenodd" d="M18.5232 11.2743C18.491 11.2743 18.4585 11.2834 18.4297 11.3024C17.6304 11.8282 16.6738 12.0423 15.7191 11.9049C15.6387 11.893 15.5575 11.8869 15.4778 11.8869C15.3072 11.8869 15.159 11.917 15.0492 11.9741C14.7048 12.1536 14.3674 12.7681 14.3891 13.5956C14.4199 14.7938 13.9008 15.9198 12.9653 16.685C12.893 16.7441 12.8827 16.8502 12.9422 16.9219C13.0018 16.9937 13.1085 17.0039 13.1808 16.9448C14.1975 16.1134 14.7614 14.8894 14.728 13.5869C14.7089 12.8619 14.9965 12.3816 15.2067 12.2722C15.2416 12.2541 15.3234 12.2235 15.4778 12.2235C15.5408 12.2235 15.605 12.2283 15.6697 12.2379C16.7099 12.3876 17.7484 12.1542 18.617 11.5829C18.695 11.5316 18.7163 11.4272 18.6647 11.3497C18.632 11.3008 18.5782 11.2743 18.5232 11.2743Z" fill="white"/>
<path fill-rule="evenodd" clip-rule="evenodd" d="M15.4764 4.48175C14.0858 4.48175 12.7763 4.79643 11.584 5.41716C8.62066 6.96098 6.83864 10.1685 6.93317 13.7879C6.93576 13.897 6.94415 14.0085 6.95822 14.1286C6.9649 14.2098 7.03602 14.2822 7.12719 14.2822C7.22073 14.2823 7.29662 14.2066 7.29662 14.1136C7.2966 14.1071 7.29614 14.1004 7.29542 14.0939C7.28205 13.9826 7.27466 13.8798 7.27205 13.7794C7.18086 10.289 8.89344 7.19899 11.7415 5.71519C12.8846 5.12006 14.1411 4.81829 15.4764 4.81829C15.9033 4.81829 16.3347 4.85009 16.759 4.91279C17.3758 5.00291 17.9465 5.26393 18.4095 5.66773C18.4797 5.72899 18.5869 5.72207 18.6487 5.65234C18.7105 5.58255 18.7035 5.47617 18.6332 5.41484C18.121 4.96817 17.49 4.67936 16.8086 4.57985C16.3681 4.51475 15.9201 4.48173 15.4764 4.48175Z" fill="white"/>
<path fill-rule="evenodd" clip-rule="evenodd" d="M18.5735 10.3851C18.5327 10.3851 18.4917 10.3997 18.4591 10.4293C17.8604 10.9734 17.0901 11.273 16.2901 11.273C16.1318 11.273 15.973 11.2614 15.8179 11.2384C15.706 11.2221 15.5917 11.2138 15.4778 11.2138C15.1929 11.2138 14.9425 11.2692 14.7342 11.3784C14.0958 11.7104 13.6851 12.6085 13.7118 13.613C13.7462 14.9546 12.9228 16.1851 11.6632 16.6751C11.5761 16.709 11.5332 16.8066 11.5673 16.8931C11.6014 16.9797 11.6998 17.0222 11.7871 16.9884C13.1789 16.447 14.0886 15.0871 14.0507 13.6043C14.0273 12.725 14.365 11.9503 14.8917 11.6763C15.0514 11.5927 15.2485 11.5503 15.4778 11.5503C15.5752 11.5504 15.6728 11.5574 15.768 11.5714C15.9396 11.5967 16.1152 11.6095 16.2901 11.6095C17.175 11.6096 18.0266 11.2786 18.688 10.6776C18.757 10.6148 18.7618 10.5084 18.6986 10.4398C18.6651 10.4035 18.6194 10.3851 18.5735 10.3851Z" fill="white"/>
<path fill-rule="evenodd" clip-rule="evenodd" d="M16.7094 5.24558C16.2984 5.1854 15.8835 5.15488 15.4764 5.15488C14.1968 5.1549 12.993 5.44378 11.8985 6.01354C9.16621 7.43703 7.52335 10.4093 7.61117 13.7706C7.63142 14.5511 7.95649 15.2703 8.52186 15.7916L8.54524 15.8142L8.55002 15.8164C8.80059 16.0429 9.08412 16.2207 9.39556 16.3457C9.43685 16.3624 9.47908 16.3778 9.52134 16.3926L9.54996 16.4063H9.56235C9.859 16.5062 10.1717 16.5571 10.4926 16.5571C10.5155 16.5571 10.5387 16.5571 10.5669 16.5563C12.1551 16.5148 13.4137 15.1984 13.3727 13.6218C13.3424 12.4744 13.8151 11.4767 14.5769 11.08C14.7791 10.9746 15.0103 10.9095 15.2642 10.8866C15.3573 10.8782 15.4261 10.7963 15.4177 10.7037C15.4091 10.6112 15.327 10.5432 15.2334 10.5514C14.9351 10.5783 14.6612 10.6559 14.4194 10.782C13.544 11.2377 13.0002 12.3559 13.0338 13.6305C13.0701 15.0217 11.9594 16.1832 10.5583 16.2199C10.5334 16.2205 10.5139 16.2203 10.4926 16.2205C10.2022 16.2205 9.91989 16.1737 9.65306 16.0816C9.33398 15.927 9.03043 15.7458 8.75049 15.5431C8.25216 15.0802 7.96795 14.4481 7.95005 13.7618C7.86578 10.5298 9.43899 7.67492 12.0561 6.31153C13.1013 5.76737 14.2521 5.49137 15.4764 5.49137C15.8671 5.49139 16.2654 5.52066 16.6599 5.57842C17.3318 5.67695 17.9248 6.029 18.3293 6.56924C18.365 6.61749 18.3992 6.66679 18.4308 6.71574C18.4813 6.79401 18.5862 6.81684 18.665 6.76666C18.7438 6.71651 18.7668 6.61238 18.7162 6.53416C18.6807 6.47906 18.6423 6.42371 18.6018 6.36908C18.1429 5.75611 17.4708 5.35708 16.7094 5.24558Z" fill="white"/>
<path fill-rule="evenodd" clip-rule="evenodd" d="M18.6652 9.37931C18.6368 9.36121 18.6051 9.35252 18.5737 9.35252C18.5179 9.35254 18.4634 9.37982 18.431 9.4298C17.9635 10.1515 17.1431 10.5999 16.2901 10.5999C16.1639 10.5999 16.0384 10.5908 15.9172 10.5728C15.8246 10.5594 15.7382 10.6225 15.7244 10.7144C15.7107 10.8063 15.7745 10.8919 15.8671 10.9057C16.0049 10.9261 16.1472 10.9364 16.2901 10.9364C17.2719 10.9364 18.1789 10.4413 18.7161 9.61186C18.7667 9.53369 18.744 9.42956 18.6652 9.37931Z" fill="white"/>
<path fill-rule="evenodd" clip-rule="evenodd" d="M12.3558 13.6481C12.3823 14.6685 11.568 15.5202 10.5406 15.5468C10.5232 15.5472 10.5079 15.5474 10.4926 15.5474C9.4736 15.5474 8.65455 14.7554 8.62806 13.7444C8.55026 10.7707 9.98456 8.151 12.3713 6.90755C13.3178 6.41473 14.3624 6.16489 15.4766 6.16489C15.8365 6.16491 16.2014 6.19164 16.561 6.24439C17.0535 6.31648 17.4883 6.57477 17.7853 6.97162C18.0823 7.36855 18.2058 7.85653 18.1332 8.34575C17.9995 9.24713 17.2071 9.92688 16.2899 9.92688C16.1988 9.9269 16.1068 9.92014 16.0162 9.90684C15.8368 9.88057 15.6556 9.86725 15.4778 9.86725C14.9724 9.86725 14.5101 9.97449 14.1042 10.186C13.0021 10.7601 12.3157 12.1191 12.3558 13.6481ZM14.2617 10.484C14.6184 10.2981 15.0277 10.2038 15.4778 10.2038C15.6392 10.2038 15.8036 10.2159 15.9667 10.2398C16.0735 10.2555 16.1822 10.2634 16.2899 10.2634C17.3739 10.2634 18.3105 9.46007 18.4685 8.39477C18.5544 7.81669 18.4084 7.23999 18.0574 6.77094C17.7064 6.30186 17.1925 5.99658 16.6105 5.91143C16.2346 5.8563 15.853 5.8283 15.4766 5.8283C14.307 5.8283 13.2095 6.09114 12.214 6.6095C9.71176 7.91297 8.20803 10.6502 8.28916 13.7531C8.32044 14.948 9.2884 15.8839 10.4926 15.8839C10.5105 15.8839 10.5282 15.8837 10.5492 15.8831C11.7635 15.8518 12.726 14.8453 12.6947 13.6394C12.6579 12.2375 13.2729 10.999 14.2617 10.484Z" fill="white"/>
<path fill-rule="evenodd" clip-rule="evenodd" d="M16.0658 9.57392C16.14 9.58478 16.2154 9.59031 16.2899 9.59031C17.0402 9.59031 17.6885 9.03409 17.7978 8.29657C17.8573 7.89634 17.7562 7.4971 17.5132 7.17239C17.2702 6.84759 16.9144 6.6363 16.5114 6.57732C16.1681 6.52699 15.8198 6.50143 15.4766 6.50143C14.4177 6.50145 13.4261 6.73836 12.5291 7.20558C12.0472 7.45665 11.5983 7.77159 11.1952 8.14171C11.1265 8.20484 11.1224 8.31127 11.1859 8.3795C11.2494 8.44776 11.3568 8.45186 11.4255 8.38881C11.8067 8.0388 12.231 7.74095 12.6863 7.50363C13.5345 7.06196 14.4733 6.83802 15.4766 6.83802C15.8034 6.83802 16.1349 6.86234 16.462 6.91025C16.7754 6.95616 17.0521 7.1205 17.2411 7.37305C17.4301 7.62568 17.5087 7.93617 17.4625 8.24752C17.3774 8.82115 16.8733 9.25371 16.2899 9.25371C16.2319 9.25373 16.1732 9.24941 16.1154 9.24093C15.9031 9.20988 15.6886 9.19411 15.4778 9.19411C14.8614 9.19413 14.2932 9.32727 13.7891 9.58993C12.4598 10.2823 11.6313 11.8821 11.678 13.6656C11.695 14.315 11.1766 14.857 10.5229 14.8739C10.5122 14.8741 10.5024 14.8743 10.4926 14.8743C9.84397 14.8743 9.32277 14.3703 9.30584 13.7269C9.25832 11.9097 9.82251 10.2105 10.8945 8.94227C10.9549 8.87109 10.9454 8.7649 10.8738 8.70517C10.8019 8.64543 10.6953 8.65474 10.6349 8.72588C9.50962 10.0571 8.91731 11.8362 8.96694 13.7356C8.98866 14.5629 9.65879 15.2108 10.4926 15.2108C10.505 15.2108 10.5177 15.2107 10.5315 15.2102C11.3723 15.1886 12.0386 14.4917 12.0169 13.6569C11.9735 12.0006 12.731 10.5211 13.9466 9.88792C14.4015 9.65086 14.9168 9.53064 15.4778 9.53064C15.6721 9.53064 15.8699 9.54522 16.0658 9.57392Z" fill="white"/>
<path fill-rule="evenodd" clip-rule="evenodd" d="M11.0002 13.6831C11.0074 13.9614 10.7855 14.1937 10.5053 14.2009C10.2237 14.2075 9.99077 13.9872 9.9836 13.7094C9.91939 11.2524 11.0757 9.10293 13.0016 8.09973C13.7514 7.70916 14.5841 7.51112 15.4766 7.51112C15.7702 7.51114 16.0684 7.53302 16.363 7.57618C16.4973 7.59584 16.6159 7.66626 16.6968 7.7745C16.7778 7.88277 16.8115 8.01586 16.7917 8.1493C16.772 8.28275 16.7011 8.4005 16.5921 8.48093C16.5036 8.54625 16.3985 8.58057 16.2901 8.58057C16.265 8.58059 16.2397 8.57878 16.2145 8.57504C15.5246 8.4742 14.4891 8.46496 13.4741 8.99387C11.9179 9.80447 10.9468 11.6451 11.0002 13.6831ZM13.6316 9.29192C14.5659 8.80502 15.5251 8.81437 16.165 8.908C16.3892 8.94096 16.6127 8.88516 16.7943 8.75104C16.9759 8.61701 17.0941 8.42071 17.1271 8.19838C17.1601 7.97604 17.104 7.75421 16.969 7.57378C16.8339 7.3934 16.6362 7.27599 16.4124 7.24323C16.1016 7.19768 15.7866 7.17457 15.4766 7.17457C14.5287 7.17457 13.6431 7.38553 12.8441 7.8017C10.8029 8.86494 9.57718 11.1319 9.64472 13.7181C9.65686 14.1812 10.0471 14.5499 10.5139 14.5374C10.9809 14.5254 11.3513 14.1382 11.3391 13.6744C11.289 11.7636 12.189 10.0434 13.6316 9.29192Z" fill="white"/>
<path fill-rule="evenodd" clip-rule="evenodd" d="M10.6874 11.9147C10.6747 11.9119 10.6621 11.9105 10.6497 11.9105C10.5723 11.9105 10.5024 11.9635 10.4845 12.0416C10.3623 12.5777 10.3077 13.1359 10.3225 13.7007C10.3249 13.7935 10.402 13.8655 10.4962 13.8645C10.59 13.8621 10.6638 13.7848 10.6614 13.6919C10.6473 13.1551 10.6991 12.6248 10.8153 12.1161C10.8358 12.0254 10.7786 11.9353 10.6874 11.9147Z" fill="white"/>
<path fill-rule="evenodd" clip-rule="evenodd" d="M16.264 8.24209C16.3567 8.25591 16.4428 8.1921 16.4564 8.10017C16.4701 8.00819 16.406 7.92266 16.3135 7.90915C16.0689 7.87334 15.7859 7.84778 15.4771 7.84778C14.7891 7.84778 13.9715 7.9746 13.1591 8.39779C12.0999 8.94944 11.2518 9.91699 10.7704 11.1223C10.7358 11.2087 10.7783 11.3065 10.8654 11.3407C10.9525 11.3751 11.0509 11.3328 11.0855 11.2463C11.537 10.1159 12.3293 9.21008 13.3166 8.69582C14.413 8.12468 15.5244 8.13394 16.264 8.24209Z" fill="white"/>
<path fill-rule="evenodd" clip-rule="evenodd" d="M2.59685 15.8985H0V1.10131H2.59685V15.8985Z" fill="white"/>
<path fill-rule="evenodd" clip-rule="evenodd" d="M35.6929 8.33741C35.6929 10.5183 34.9875 12.3238 33.5764 13.7537C32.1651 15.1835 30.3687 15.8985 28.1866 15.8985H19.864L22.3604 13.3204H28.1866C29.612 13.3204 30.7868 12.8798 31.7107 11.9988C32.6344 11.1178 33.0963 9.96942 33.0963 8.55413C33.0963 7.12426 32.6344 5.95437 31.7107 5.04445C30.7868 4.13454 29.612 3.67957 28.1866 3.67957H22.3604L19.7854 1.10131H28.1866C30.3832 1.10131 32.1834 1.76583 33.5872 3.09463C34.9911 4.42344 35.6929 6.1711 35.6929 8.33741Z" fill="white"/>
<path fill-rule="evenodd" clip-rule="evenodd" d="M53 15.8985H50.4031V7.309L44.3187 12.6997L44.3161 12.6971L44.3136 12.6997L35.6323 4.53601V1.10131L35.6329 1.1019L35.6323 1.08476L44.3161 9.05651L53 1.08476L52.9996 1.1019L53 1.10131V15.8985Z" fill="white"/>
</svg>
